# xmcd
#
# Track frame offsets: 
#        182
#        15812
#        34457
#        54185
#        73607
#
# Disc length: 1290 seconds
#
# Revision: 4
# Processed by: cddbd v1.5.2PL0 Copyright (c) Steve Scherf et al.
# Submitted via: ExactAudioCopyFreeDBPlugin 1.0
#
DISCID=34050805
DTITLE=Portishead - Sour Times
DYEAR=1994
DGENRE=Trip-Hop
TTITLE0=Sour Times
TTITLE1=Sour Sour Times
TTITLE2=Lot More
TTITLE3=Sheared Times
TTITLE4=Airbus Reconstruction
EXTD=
EXTT0=
EXTT1=
EXTT2=
EXTT3=
EXTT4=
PLAYORDER=
